# xmcd
#
# Track frame offsets:
#	150
#	10893
#	21132
#	36604
#	50638
#	65067
#	73525
#	84707
#	97608
#	119379
#	138800
#	155896
#	172059
#	193371
#	211976
#	224546
#	240011
#	254092
#	270589
#	289975
#	319207
#	334677
#
# Disc length: 4703 seconds
#
# Revision: 0
# Processed by: cddbd v1.5.2PL0 Copyright (c) Steve Scherf et al.
# Submitted via: audiograbber 1.83.01
#
DISCID=57125d16
DTITLE=F‰‰gmeel - Hearbstbloihe and andere
DYEAR=1999
DGENRE=Folklore
TTITLE0=Hearbstloft
TTITLE1=L‰ngliche Schoatte
TTITLE2=Nieh mieh
TTITLE3=Weibsleut
TTITLE4=Krogedill
TTITLE5=De Maibaam
TTITLE6=Aaltweiwer-Sommer
TTITLE7=Freunde
TTITLE8=Dann of aamol
TTITLE9=En Hauch vo Gleck
TTITLE10=Mein Freund
TTITLE11=D‰if eanne dreann
TTITLE12=Die Chreasdoag
TTITLE13=Hearbstbloihe
TTITLE14=Jeder brauch e Fraa
TTITLE15=Imw‰je
TTITLE16=Mailied
TTITLE17=Junimoejend
TTITLE18=Du
TTITLE19=Philosopheblues
TTITLE20=Wann Du mer fehlst
TTITLE21=Leise
EXTD=
EXTT0=
EXTT1=
EXTT2=
EXTT3=
EXTT4=
EXTT5=
EXTT6=
EXTT7=
EXTT8=
EXTT9=
EXTT10=
EXTT11=
EXTT12=
EXTT13=
EXTT14=
EXTT15=
EXTT16=
EXTT17=
EXTT18=
EXTT19=
EXTT20=
EXTT21=
PLAYORDER=
